<svg xmlns="http://www.w3.org/2000/svg" viewBox="0 0 32 32"><path d="M27,31.36H5c-0.199,0-0.36-0.161-0.36-0.36V1	c0-0.199,0.161-0.36,0.36-0.36h22c0.199,0,0.36,0.161,0.36,0.36v30C27.36,31.199,27.199,31.36,27,31.36z M5.36,30.64h21.28v-9.28	H5.36V30.64z M5.36,20.64h21.28v-9.28H5.36V20.64z M5.36,10.64h21.28V1.36H5.36V10.64z M11,6c0,0.552-0.448,1-1,1S9,6.552,9,6	s0.448-1,1-1S11,5.448,11,6z M10,15c-0.552,0-1,0.448-1,1s0.448,1,1,1s1-0.448,1-1S10.552,15,10,15z M10,25c-0.552,0-1,0.448-1,1	s0.448,1,1,1s1-0.448,1-1S10.552,25,10,25z"/></svg>