<svg xmlns="http://www.w3.org/2000/svg" viewBox="0 0 32 32"><path d="M26,29.36c-0.199,0-0.36-0.161-0.36-0.36v-2	c0-0.199,0.161-0.36,0.36-0.36s0.36,0.161,0.36,0.36v2C26.36,29.199,26.199,29.36,26,29.36z M18,29.36	c-0.199,0-0.36-0.161-0.36-0.36v-2c0-0.199,0.161-0.36,0.36-0.36s0.36,0.161,0.36,0.36v2C18.36,29.199,18.199,29.36,18,29.36z M10,29.36c-0.199,0-0.36-0.161-0.36-0.36v-2c0-0.199,0.161-0.36,0.36-0.36s0.36,0.161,0.36,0.36v2	C10.36,29.199,10.199,29.36,10,29.36z M26,14.36c-0.199,0-0.36-0.161-0.36-0.36v-2c0-0.199,0.161-0.36,0.36-0.36	s0.36,0.161,0.36,0.36v2C26.36,14.199,26.199,14.36,26,14.36z M18,14.36c-0.199,0-0.36-0.161-0.36-0.36v-2	c0-0.199,0.161-0.36,0.36-0.36s0.36,0.161,0.36,0.36v2C18.36,14.199,18.199,14.36,18,14.36z M10,14.36	c-0.199,0-0.36-0.161-0.36-0.36v-2c0-0.199,0.161-0.36,0.36-0.36s0.36,0.161,0.36,0.36v2C10.36,14.199,10.199,14.36,10,14.36z M27.816,31.36H4c-0.199,0-0.36-0.161-0.36-0.36V1c0-0.199,0.161-0.36,0.36-0.36h23.816c0.199,0,0.36,0.161,0.36,0.36v30	C28.177,31.199,28.016,31.36,27.816,31.36z M20.36,30.64h7.096V16.36H20.36V30.64z M12.36,30.64h7.28V16.36h-7.28	C12.36,16.36,12.36,30.64,12.36,30.64z M4.36,30.64h7.28V16.36H4.36V30.64z M20.36,15.64h7.096V1.36H20.36V15.64z M12.36,15.64h7.28	V1.36h-7.28C12.36,1.36,12.36,15.64,12.36,15.64z M4.36,15.64h7.28V1.36H4.36V15.64z M26,24.36h-4v-0.72h4V24.36z M18,24.36h-4	v-0.72h4V24.36z M10,24.36H6v-0.72h4V24.36z M26,22.36h-4v-0.72h4V22.36z M18,22.36h-4v-0.72h4V22.36z M10,22.36H6v-0.72h4V22.36z M26,20.36h-4v-0.72h4V20.36z M18,20.36h-4v-0.72h4V20.36z M10,20.36H6v-0.72h4V20.36z M26,9.36h-4V8.64h4V9.36z M18,9.36h-4V8.64h4	V9.36z M10,9.36H6V8.64h4V9.36z M26,7.36h-4V6.64h4V7.36z M18,7.36h-4V6.64h4V7.36z M10,7.36H6V6.64h4V7.36z M26,5.36h-4V4.64h4	V5.36z M18,5.36h-4V4.64h4V5.36z M10,5.36H6V4.64h4V5.36z"/></svg>