<svg xmlns="http://www.w3.org/2000/svg" viewBox="0 0 32 32"><path d="M27,30.36H8c-0.199,0-0.36-0.161-0.36-0.36v-1.64H6	c-0.199,0-0.36-0.161-0.36-0.36v-1.64H5c-0.199,0-0.36-0.161-0.36-0.36V7c0-0.096,0.038-0.187,0.105-0.254l5-5	C9.813,1.678,9.904,1.64,10,1.64h13c0.199,0,0.36,0.161,0.36,0.36v1.64H25c0.199,0,0.36,0.161,0.36,0.36v1.64H27	c0.199,0,0.36,0.161,0.36,0.36v24C27.36,30.199,27.199,30.36,27,30.36z M8.36,29.64h18.28V6.36h-1.28V28	c0,0.199-0.161,0.36-0.36,0.36H8.36V29.64z M6.36,27.64h18.28V4.36h-1.28V26c0,0.199-0.161,0.36-0.36,0.36H6.36V27.64z M5.36,25.64	h17.28V2.36H10.36V7c0,0.199-0.161,0.36-0.36,0.36H5.36V25.64z M5.869,6.64H9.64V2.869L5.869,6.64z"/></svg>